<?xml version="1.0" encoding="UTF-8"?>
<svg id="Livello_2" data-name="Livello 2" xmlns="http://www.w3.org/2000/svg" viewBox="0 0 508.49 74.01">
  <defs>
    <style>
      .cls-1 {
        fill: #54b4c8;
      }
    </style>
  </defs>
  <g id="Livello_1-2" data-name="Livello 1">
    <g>
      <g>
        <path class="cls-1" d="M23.73,4.91c-.26-.68-.39-1.31-.39-1.9,0-.42.11-.73.32-.92.21-.19.56-.29,1.04-.29h11.62c.24.6.36,1.18.36,1.75,0,.5-.1.85-.3,1.05-.2.2-.55.3-1.05.3h-2.14c-.1,2.79-.14,9.53-.12,20.23,0,7.21-1.4,12.07-4.19,14.59-2.79,2.52-6.99,3.78-12.59,3.78-4.8,0-8.17-.91-10.12-2.74-1.95-1.83-2.92-5.43-2.92-10.81,0-13.91-.08-22.26-.24-25.05H.36c-.24-.68-.36-1.31-.36-1.9,0-.42.11-.73.32-.92.21-.19.56-.29,1.04-.29h11.74c.26.6.39,1.18.39,1.75,0,.5-.1.85-.3,1.05s-.56.3-1.08.3h-1.96c-.16,3.29-.24,10.07-.24,20.32,0,5.78.73,9.54,2.18,11.28,1.46,1.74,3.6,2.6,6.43,2.6,3.31,0,5.6-.87,6.86-2.62s1.9-5.04,1.9-9.88c0-11.18-.05-18.42-.15-21.71h-3.4Z"/>
        <path class="cls-1" d="M68.44,39.8h3.19c.26.52.39,1.08.39,1.69,0,.54-.11.91-.33,1.11-.22.2-.65.3-1.29.3h-10.63c-.24-.64-.36-1.24-.36-1.81,0-.44.11-.77.32-.98.21-.21.58-.32,1.1-.32h1.02c.14-2.95.21-7.08.21-12.37,0-4.13-.44-6.88-1.31-8.25-.87-1.37-2.28-2.05-4.23-2.05-1.26,0-2.5.47-3.72,1.42-1.21.94-1.82,2.64-1.82,5.09v6.35c0,3.55.07,6.83.21,9.82h2.44c.24.52.36,1.08.36,1.69,0,.54-.11.91-.33,1.11-.22.2-.64.3-1.26.3h-10.93c-.26-.64-.39-1.24-.39-1.81,0-.44.11-.77.33-.98.22-.21.58-.32,1.08-.32h2.08c.16-3.19.24-7.11.24-11.74,0-5.92-.23-9.35-.69-10.3-.46-.94-1.35-1.42-2.65-1.42-.26-.56-.39-1.14-.39-1.75,0-.54.21-.89.63-1.04.42-.15,3.08-.31,7.98-.47.12.92.12,2.11,0,3.55,1.99-1.33,3.9-2.3,5.74-2.92,1.84-.62,3.54-.93,5.1-.93,1.99,0,3.51.35,4.58,1.04,1.06.69,1.79,1.57,2.17,2.63,1.81-1.22,3.62-2.14,5.44-2.75,1.82-.61,3.49-.92,5.01-.92,2.47,0,4.38.62,5.74,1.85s2.03,3.59,2.03,7.06c0,10.8.16,16.52.47,17.16.31.64,1.03.95,2.15.93.22.58.33,1.17.33,1.75,0,.54-.17.9-.51,1.08s-.97.27-1.9.27c-2.79,0-4.5-.04-5.12-.11-.62-.07-1.04-.28-1.26-.63-.22-.35-.33-.94-.33-1.76v-12.98c0-4.13-.44-6.88-1.31-8.25s-2.28-2.05-4.23-2.05c-1.26,0-2.5.47-3.72,1.42-1.21.94-1.82,2.64-1.82,5.09,0,8.41.07,13.8.21,16.17Z"/>
        <path class="cls-1" d="M96.09,9.44c-.07-2.32-.21-3.83-.42-4.53-.21-.7-.56-1.15-1.05-1.36-.49-.2-1.12-.3-1.88-.3-.26-.62-.39-1.23-.39-1.84s.25-1.01.75-1.17c.5-.16,2.16-.24,4.97-.24,1.59,0,2.66.08,3.22.23.56.15.88.43.96.84.08.41.12,1.12.12,2.12l-.42,12.16c1.26-.86,2.7-1.53,4.32-2,1.62-.47,3.43-.71,5.43-.71,3.19,0,5.74,1.05,7.63,3.15,1.9,2.1,2.85,5.63,2.85,10.58,0,5.62-1.24,9.88-3.72,12.78-2.48,2.9-6.1,4.35-10.85,4.35-1.65,0-3.15-.14-4.5-.42s-2.41-.6-3.18-.96l-.93.93c-1.35,0-2.18-.15-2.51-.45-.33-.3-.5-.86-.5-1.69,0-.7.03-2.41.11-5.12.07-2.71.1-6.09.1-10.15,0-8.49-.04-13.9-.1-16.21ZM102.37,37.7c.66.54,1.51.97,2.54,1.29,1.03.32,2.18.48,3.45.48,2.53,0,4.33-.82,5.4-2.45,1.07-1.64,1.61-4.55,1.61-8.75-.02-3.81-.56-6.7-1.63-8.66-1.06-1.96-2.75-2.94-5.06-2.94-1.51,0-2.73.31-3.67.92-.94.61-1.62,1.48-2.03,2.6-.41,1.12-.63,3.71-.65,7.77l.03,9.72Z"/>
        <path class="cls-1" d="M150.18,15.3c1.81,1.77,2.71,4.68,2.71,8.73,0,1.79-.32,3.03-.96,3.73-.64.7-2.05,1.05-4.22,1.05h-13.31c.04,3.27.7,5.84,1.97,7.71,1.27,1.87,3.53,2.8,6.76,2.8,3.01,0,5.81-.78,8.4-2.35.86.86,1.29,1.78,1.29,2.74,0,1.34-1.11,2.29-3.33,2.83-2.22.54-4.72.81-7.51.81-5.14,0-8.83-1.09-11.06-3.27-2.24-2.18-3.36-5.85-3.36-11s1.26-9.09,3.78-12.03c2.52-2.94,6.03-4.41,10.52-4.41,3.73,0,6.5.88,8.31,2.65ZM136.15,18.83c-1.04,1.44-1.62,3.68-1.72,6.73h3.1c3.29,0,5.53-.06,6.73-.2,1.19-.13,1.89-.35,2.08-.65.19-.3.29-.86.29-1.69,0-1.99-.5-3.54-1.51-4.67-1-1.12-2.47-1.69-4.4-1.69s-3.53.72-4.58,2.15Z"/>
        <path class="cls-1" d="M159.13,13.56c.42-.15,3.08-.31,7.98-.47.12.92.12,2.16,0,3.7,2.23-1.5,4.37-2.55,6.43-3.13s3.93-.87,5.62-.87c.56,0,.94.07,1.13.2.19.13.29.42.29.86,0,.86-.14,1.79-.41,2.77s-.6,1.61-.98,1.87-1.01.46-1.9.6c-.88.14-1.4.17-1.55.09-.15-.08-.61-.63-1.37-1.66-1.79,0-3.23.57-4.34,1.7-1.1,1.13-1.66,3.42-1.66,6.85.02,6.16.1,10.74.24,13.73h4.25c.24.52.36,1.08.36,1.69,0,.54-.11.91-.33,1.11-.22.2-.64.3-1.26.3h-12.74c-.26-.64-.39-1.24-.39-1.81,0-.44.11-.77.33-.98.22-.21.58-.32,1.08-.32h2.08c.16-2.99.24-6.9.24-11.74,0-5.92-.23-9.35-.69-10.3-.46-.94-1.35-1.42-2.65-1.42-.26-.56-.39-1.14-.39-1.75,0-.54.21-.89.63-1.04Z"/>
        <path class="cls-1" d="M187.46,13.4l2.44-8.55c.84.26,1.56.57,2.15.93.59.36,1.03.79,1.31,1.28.28.49.42,2.19.42,5.1v1.23h9.91c.24.66.36,1.37.36,2.11,0,.58-.11.97-.33,1.16-.22.19-.66.29-1.32.29h-8.61v14.24c0,3.39.31,5.62.93,6.7.62,1.07,1.56,1.64,2.81,1.7,1.25.06,2.79-.35,4.62-1.24.44.66.66,1.39.66,2.17,0,1.06-.59,1.78-1.76,2.14s-3.03.54-5.56.54c-2.75,0-4.75-.56-6.01-1.69s-1.88-3.22-1.88-6.29v-7.08c0-3.85-.11-7.59-.33-11.2h-2.95c-.24-.72-.36-1.42-.36-2.11,0-.5.11-.87.33-1.1.22-.23.59-.35,1.11-.35h2.05Z"/>
        <path class="cls-1" d="M211.39,40.04c-2.05-2.31-3.07-5.79-3.07-10.45,0-5.36,1.24-9.52,3.72-12.5,2.48-2.97,6.06-4.46,10.73-4.46,4.36,0,7.56,1.16,9.6,3.46,2.05,2.31,3.07,5.8,3.07,10.48,0,5.34-1.24,9.5-3.72,12.47-2.48,2.97-6.06,4.46-10.73,4.46-4.36,0-7.56-1.15-9.6-3.46ZM227.11,36.88c1.02-1.73,1.54-4.39,1.54-7.98,0-4.13-.53-7.21-1.58-9.21-1.05-2.01-2.87-3.01-5.43-3.01-2.29,0-3.94.86-4.97,2.59-1.02,1.73-1.54,4.4-1.54,8.01,0,4.12.53,7.18,1.58,9.18,1.05,2.01,2.86,3.01,5.43,3.01,2.29,0,3.94-.86,4.97-2.59Z"/>
        <path class="cls-1" d="M270.05,1.81c1.28,0,2.2.2,2.75.59.55.39.83,1.2.83,2.42,0,1.49-.49,3.01-1.48,4.58-4.21-1.71-9.62-2.56-16.2-2.56h-1.45c-.12,1.97-.18,6.27-.18,12.92h14.78c.34,1.06.51,2.17.51,3.31,0,.68-.12,1.14-.36,1.37-.24.23-.69.35-1.35.35h-13.58c.02,7.29.08,11.95.18,14h5.21c.34.72.51,1.47.51,2.23,0,.7-.13,1.19-.39,1.47-.26.28-.68.42-1.26.42h-17.16c-.36-.88-.54-1.74-.54-2.56,0-.54.15-.94.45-1.19.3-.25.74-.38,1.32-.38h2.2c.12-2.57.18-9.29.18-20.17,0-5.88-.06-10.11-.18-12.68h-3.43c-.36-.88-.54-1.73-.54-2.53,0-.56.15-.97.45-1.22.3-.25.74-.38,1.32-.38h27.4Z"/>
        <path class="cls-1" d="M288.17,42.62c-1.93.59-3.74.89-5.45.89-2.91,0-5.04-.67-6.4-2.02-1.35-1.34-2.03-3.23-2.03-5.66,0-3.39,1.16-5.91,3.49-7.56,2.33-1.65,6-2.47,11.02-2.47h3.28c-.18-3.09-.69-5.2-1.54-6.34-.84-1.13-2.11-1.7-3.79-1.7-.92,0-1.93.12-3.01.36-.7,1.32-1.12,2.03-1.25,2.11-.13.08-.82.26-2.08.54-1.25.28-2.14.19-2.66-.27-.52-.46-1.05-1.27-1.58-2.44s-.8-2.15-.8-2.95c0-.5.21-.89.62-1.17.41-.28,1.93-.58,4.56-.9,2.63-.32,5.43-.48,8.4-.48,3.53,0,6.3.61,8.31,1.82,2.01,1.21,3.01,3.57,3.01,7.06v7.98c0,4.44.19,7.16.57,8.17.38,1.01,1.06,1.41,2.05,1.19.3.56.45,1.11.45,1.66,0,.9-.54,1.59-1.61,2.06-1.07.47-2.52.71-4.35.71-.8,0-1.44-.1-1.9-.3-.46-.2-1.18-.97-2.17-2.32-1.51.76-3.22,1.44-5.15,2.03ZM292.09,30.59c-1.45-.3-2.91-.45-4.4-.45-1.69,0-2.89.28-3.61.84-.72.56-1.08,1.63-1.08,3.19,0,1.37.36,2.39,1.07,3.09.71.69,1.75,1.04,3.12,1.04,1.08,0,2.04-.23,2.88-.69.83-.46,1.38-1.12,1.64-1.97.26-.85.39-1.96.39-3.33v-1.72Z"/>
        <path class="cls-1" d="M310.9,13.13l2.98-9.06c1.02.3,1.97.69,2.84,1.17.87.48,1.54,1.03,1.99,1.66.45.62.68,2.16.68,4.61v1.63h10.18c.34.8.51,1.66.51,2.56,0,.76-.14,1.28-.42,1.54-.28.26-.82.39-1.63.39h-8.64v11.89c0,3.45.29,5.8.87,7.05.58,1.24,1.55,1.89,2.91,1.94,1.36.05,3.01-.43,4.95-1.43.58.78.87,1.68.87,2.68,0,1.37-.72,2.28-2.15,2.75-1.44.47-3.67.71-6.7.71-3.31,0-5.68-.66-7.09-1.99-1.42-1.32-2.12-3.89-2.12-7.71v-5.24c0-3.31-.1-6.87-.3-10.66h-3.07c-.36-.86-.54-1.74-.54-2.62,0-.68.14-1.16.41-1.45.27-.28.73-.42,1.37-.42h2.11Z"/>
        <path class="cls-1" d="M336.62,13.13l2.98-9.06c1.02.3,1.97.69,2.84,1.17.87.48,1.54,1.03,1.99,1.66.45.62.68,2.16.68,4.61v1.63h10.18c.34.8.51,1.66.51,2.56,0,.76-.14,1.28-.42,1.54-.28.26-.82.39-1.63.39h-8.64v11.89c0,3.45.29,5.8.87,7.05.58,1.24,1.55,1.89,2.91,1.94,1.36.05,3.01-.43,4.95-1.43.58.78.87,1.68.87,2.68,0,1.37-.72,2.28-2.15,2.75-1.44.47-3.67.71-6.7.71-3.31,0-5.68-.66-7.09-1.99-1.42-1.32-2.12-3.89-2.12-7.71v-5.24c0-3.31-.1-6.87-.3-10.66h-3.07c-.36-.86-.54-1.74-.54-2.62,0-.68.14-1.16.41-1.45.27-.28.73-.42,1.37-.42h2.11Z"/>
        <path class="cls-1" d="M362.44,39.98c-2.28-2.35-3.42-5.75-3.42-10.21,0-5.56,1.38-9.87,4.14-12.93,2.76-3.06,6.64-4.59,11.64-4.59,4.5,0,7.88,1.17,10.15,3.52,2.27,2.35,3.4,5.75,3.4,10.21,0,5.56-1.38,9.87-4.12,12.93-2.75,3.06-6.62,4.59-11.62,4.59-4.5,0-7.88-1.17-10.16-3.52ZM377.64,36.36c.79-1.29,1.19-3.81,1.19-7.54,0-4.07-.44-6.99-1.31-8.73s-2.25-2.62-4.14-2.62c-1.63,0-2.84.65-3.63,1.94-.79,1.29-1.19,3.81-1.19,7.54,0,4.08.44,6.99,1.31,8.73.87,1.75,2.25,2.62,4.14,2.62,1.63,0,2.83-.65,3.63-1.94Z"/>
        <path class="cls-1" d="M393.27,13.19c.53-.22,3.85-.42,9.95-.6.1.84.1,2.01,0,3.49,2.53-1.49,4.82-2.49,6.87-3.01,2.05-.52,3.85-.78,5.42-.78.72,0,1.2.09,1.45.26.24.17.36.57.36,1.19,0,1.1-.17,2.25-.5,3.45-.33,1.19-.74,1.96-1.23,2.3-.49.34-1.27.59-2.33.75-1.06.16-1.68.2-1.85.12-.17-.08-.74-.75-1.7-2.02-1.49,0-2.62.54-3.42,1.61-.79,1.07-1.19,3.84-1.19,8.29,0,4.08.05,7.59.15,10.54h4.73c.36.66.54,1.41.54,2.23,0,.7-.15,1.19-.44,1.47-.29.28-.86.42-1.7.42h-15.36c-.36-.84-.54-1.64-.54-2.38,0-.62.14-1.07.42-1.34.28-.27.73-.41,1.35-.41h2.2c.1-2.95.15-6.37.15-10.27,0-5.62-.27-8.94-.8-9.97-.53-1.02-1.46-1.54-2.79-1.54-.36-.8-.54-1.61-.54-2.41,0-.72.27-1.19.8-1.42Z"/>
        <path class="cls-1" d="M444.95,15.1c1.89,1.9,2.83,4.89,2.83,8.99,0,2.03-.4,3.47-1.2,4.34-.8.86-2.56,1.29-5.27,1.29h-11.2c.06,2.63.65,4.69,1.78,6.19s3.1,2.24,5.93,2.24,5.62-.8,8.55-2.41c1.04,1.02,1.57,2.13,1.57,3.31,0,1.61-1.18,2.72-3.54,3.36-2.36.63-5.12.95-8.29.95-5.46,0-9.42-1.1-11.89-3.31-2.47-2.21-3.7-5.85-3.7-10.93s1.39-9.41,4.17-12.39,6.51-4.47,11.19-4.47c4.17,0,7.21.95,9.09,2.84ZM431.25,19.27c-.78,1.21-1.18,3.3-1.2,6.29h1.6c2.23,0,3.93-.06,5.1-.2,1.17-.13,1.86-.35,2.06-.66.2-.31.3-.83.3-1.55,0-1.81-.39-3.21-1.17-4.2-.78-.99-1.88-1.49-3.28-1.49-1.49,0-2.62.6-3.4,1.81Z"/>
        <path class="cls-1" d="M455.94,11.23c-.08-2.33-.23-3.92-.45-4.77-.22-.85-.61-1.41-1.16-1.66s-1.27-.38-2.15-.38c-.36-.82-.54-1.65-.54-2.47s.32-1.38.95-1.61c.63-.23,2.65-.35,6.07-.35,2.13,0,3.58.09,4.37.26.78.17,1.23.49,1.34.95.11.46.17,1.11.17,1.96v23.15c0,5.74.05,9.9.15,12.46h3.85c.34.66.51,1.41.51,2.23,0,.7-.15,1.19-.44,1.47-.29.28-.86.42-1.7.42h-14.72c-.36-.84-.54-1.64-.54-2.38,0-.62.14-1.07.42-1.34.28-.27.73-.41,1.36-.41h2.47c.12-2.57.18-6.03.18-10.39,0-9.11-.04-14.83-.12-17.16Z"/>
        <path class="cls-1" d="M475.63,11.23c-.08-2.33-.23-3.92-.45-4.77-.22-.85-.61-1.41-1.16-1.66s-1.27-.38-2.15-.38c-.36-.82-.54-1.65-.54-2.47s.32-1.38.95-1.61c.63-.23,2.65-.35,6.07-.35,2.13,0,3.58.09,4.37.26.78.17,1.23.49,1.34.95.11.46.17,1.11.17,1.96v23.15c0,5.74.05,9.9.15,12.46h3.85c.34.66.51,1.41.51,2.23,0,.7-.15,1.19-.44,1.47-.29.28-.86.42-1.7.42h-14.72c-.36-.84-.54-1.64-.54-2.38,0-.62.14-1.07.42-1.34.28-.27.73-.41,1.36-.41h2.47c.12-2.57.18-6.03.18-10.39,0-9.11-.04-14.83-.12-17.16Z"/>
        <path class="cls-1" d="M507.76,38.78c.34.66.51,1.41.51,2.23,0,.7-.14,1.19-.44,1.47-.29.28-.86.42-1.7.42h-14.45c-.34-.84-.51-1.64-.51-2.38,0-.62.14-1.07.42-1.34.28-.27.73-.41,1.35-.41h2.47c.1-2.57.15-5.31.15-8.22,0-4.44-.04-7.38-.11-8.84-.07-1.46-.23-2.52-.47-3.19-.24-.67-.61-1.09-1.11-1.26-.5-.17-1.23-.26-2.2-.26-.34-.56-.51-1.21-.51-1.96,0-1.12.46-1.82,1.39-2.08.92-.26,2.8-.39,5.63-.39,2.13,0,3.58.08,4.35.24.77.16,1.21.48,1.33.95.11.47.17,1.13.17,1.97v14.81c.02,2.91.08,5.65.18,8.22h3.55ZM494.78,7.63c-.8-.69-1.2-1.67-1.2-2.94s.51-2.41,1.54-3.27c1.02-.85,2.48-1.28,4.37-1.28s3.29.37,4.09,1.1c.8.73,1.21,1.69,1.21,2.88,0,1.3-.48,2.39-1.45,3.25s-2.51,1.29-4.64,1.29c-1.81,0-3.11-.35-3.91-1.04Z"/>
      </g>
      <g>
        <path class="cls-1" d="M244.1,69.83c1.32,1.56,2.88,2.35,4.66,2.35,2.13,0,3.32-1.19,3.32-2.42,0-.86-.24-1.52-.73-1.98-.46-.46-1.36-1.06-2.68-1.74-.68-.35-1.21-.64-1.58-.88s-.77-.53-1.19-.88c-.81-.73-1.17-1.56-1.17-2.68,0-2.22,1.78-3.76,4.6-3.76,1.25,0,2.29.35,3.1,1.06v1.94c-.95-.95-1.98-1.41-3.12-1.41-1.78,0-2.86.86-2.86,2.18,0,.64.22,1.14.66,1.54.46.4,1.23.88,2.31,1.43,1.47.73,2.24,1.21,3.1,2.07.88.81,1.28,1.83,1.28,3.12,0,1.08-.46,2-1.36,2.82-.9.79-2.07,1.19-3.54,1.19-1.94,0-3.54-.62-4.8-1.83v-2.11Z"/>
        <path class="cls-1" d="M262.38,73.46v-13.75h-4.18v-1.58h10.08v1.58h-4.18v13.75h-1.72Z"/>
        <path class="cls-1" d="M274.44,58.13h1.72v9.79c0,2.75,1.54,4.22,4.03,4.22s4.03-1.47,4.03-4.22v-9.79h1.72v9.97c0,1.8-.53,3.19-1.58,4.18-1.06.97-2.44,1.45-4.16,1.45s-3.1-.48-4.16-1.45c-1.06-.99-1.58-2.38-1.58-4.18v-9.97Z"/>
        <path class="cls-1" d="M293.44,73.46v-15.34h4.93c2.44,0,4.38.7,5.79,2.11,1.43,1.41,2.13,3.26,2.13,5.57s-.7,4.16-2.11,5.57c-1.41,1.39-3.34,2.09-5.79,2.09h-4.95ZM295.16,71.88h3.1c4.14,0,6.31-2.38,6.31-6.07s-2.18-6.09-6.34-6.09h-3.08v12.17Z"/>
        <path class="cls-1" d="M313.09,73.46v-15.34h1.72v15.34h-1.72Z"/>
        <path class="cls-1" d="M321.54,65.81c0-2.27.77-4.16,2.31-5.68,1.56-1.52,3.45-2.29,5.68-2.29s4.11.77,5.66,2.29c1.56,1.52,2.33,3.41,2.33,5.68s-.77,4.18-2.33,5.7c-1.54,1.52-3.43,2.27-5.66,2.27s-4.11-.75-5.68-2.27c-1.54-1.52-2.31-3.43-2.31-5.7ZM323.23,65.81c0,1.83.59,3.37,1.78,4.58,1.21,1.21,2.71,1.8,4.51,1.8s3.3-.59,4.49-1.8c1.19-1.21,1.78-2.75,1.78-4.58s-.59-3.34-1.78-4.55c-1.19-1.21-2.68-1.83-4.49-1.83s-3.3.62-4.51,1.83c-1.19,1.21-1.78,2.73-1.78,4.55Z"/>
        <path class="cls-1" d="M356.14,73.46v-15.34h4.93c2.44,0,4.38.7,5.79,2.11,1.43,1.41,2.13,3.26,2.13,5.57s-.7,4.16-2.11,5.57c-1.41,1.39-3.34,2.09-5.79,2.09h-4.95ZM357.86,71.88h3.1c4.14,0,6.31-2.38,6.31-6.07s-2.18-6.09-6.34-6.09h-3.08v12.17Z"/>
        <path class="cls-1" d="M375.7,73.46v-15.34h8.67v1.58h-6.95v4.86h6.53v1.58h-6.53v5.72h7.11v1.58h-8.82Z"/>
        <path class="cls-1" d="M391.36,73.46v-15.89l10.76,12.15v-11.6h1.72v15.89l-10.76-12.15v11.6h-1.72Z"/>
        <path class="cls-1" d="M414.29,73.46v-13.75h-4.18v-1.58h10.08v1.58h-4.18v13.75h-1.72Z"/>
        <path class="cls-1" d="M426.54,73.46v-15.34h1.72v15.34h-1.72Z"/>
        <path class="cls-1" d="M434.97,69.83c1.32,1.56,2.88,2.35,4.66,2.35,2.13,0,3.32-1.19,3.32-2.42,0-.86-.24-1.52-.73-1.98-.46-.46-1.36-1.06-2.68-1.74-.68-.35-1.21-.64-1.58-.88s-.77-.53-1.19-.88c-.81-.73-1.17-1.56-1.17-2.68,0-2.22,1.78-3.76,4.6-3.76,1.25,0,2.29.35,3.1,1.06v1.94c-.95-.95-1.98-1.41-3.12-1.41-1.78,0-2.86.86-2.86,2.18,0,.64.22,1.14.66,1.54.46.4,1.23.88,2.31,1.43,1.47.73,2.24,1.21,3.1,2.07.88.81,1.28,1.83,1.28,3.12,0,1.08-.46,2-1.36,2.82-.9.79-2.07,1.19-3.54,1.19-1.94,0-3.54-.62-4.8-1.83v-2.11Z"/>
        <path class="cls-1" d="M453.25,73.46v-13.75h-4.18v-1.58h10.08v1.58h-4.18v13.75h-1.72Z"/>
        <path class="cls-1" d="M465.5,73.46v-15.34h1.72v15.34h-1.72Z"/>
        <path class="cls-1" d="M486.76,59.47v1.98c-1.3-1.34-2.9-2.02-4.82-2.02-1.8,0-3.3.62-4.49,1.83-1.19,1.21-1.78,2.73-1.78,4.55s.59,3.37,1.78,4.58c1.19,1.21,2.68,1.8,4.49,1.8,1.94,0,3.54-.68,4.82-2.02v1.98c-1.28,1.08-2.88,1.63-4.82,1.63-2.22,0-4.12-.75-5.68-2.27-1.54-1.52-2.31-3.43-2.31-5.7s.77-4.16,2.31-5.68c1.56-1.52,3.45-2.29,5.68-2.29,1.94,0,3.54.55,4.82,1.63Z"/>
        <path class="cls-1" d="M492.52,65.81c0-2.27.77-4.16,2.31-5.68,1.56-1.52,3.45-2.29,5.68-2.29s4.11.77,5.65,2.29c1.56,1.52,2.33,3.41,2.33,5.68s-.77,4.18-2.33,5.7c-1.54,1.52-3.43,2.27-5.65,2.27s-4.12-.75-5.68-2.27c-1.54-1.52-2.31-3.43-2.31-5.7ZM494.21,65.81c0,1.83.59,3.37,1.78,4.58,1.21,1.21,2.71,1.8,4.51,1.8s3.3-.59,4.49-1.8,1.78-2.75,1.78-4.58-.59-3.34-1.78-4.55c-1.19-1.21-2.68-1.83-4.49-1.83s-3.3.62-4.51,1.83c-1.19,1.21-1.78,2.73-1.78,4.55Z"/>
      </g>
    </g>
  </g>
</svg>